<svg width="141pt" height="30pt" viewBox="0 0 141 30" xmlns="http://www.w3.org/2000/svg"><g id="fontsvg1679076707778" stroke-linecap="round" fill-rule="evenodd" fill="#000000"><path d="M 67.778 25.781 L 63.911 25.781 L 63.911 8.906 Q 63.911 6.794 62.525 6.726 A 1.913 1.913 0 0 0 62.432 6.724 A 2.069 2.069 0 0 0 61.844 6.803 A 1.533 1.533 0 0 0 61.055 7.339 A 2.023 2.023 0 0 0 60.724 7.981 Q 60.633 8.266 60.597 8.611 A 4.716 4.716 0 0 0 60.571 9.111 L 60.571 25.781 L 56.689 25.781 L 56.689 8.877 Q 56.689 6.724 55.254 6.724 A 1.978 1.978 0 0 0 54.656 6.809 A 1.52 1.52 0 0 0 53.826 7.449 A 2.736 2.736 0 0 0 53.463 8.3 Q 53.374 8.658 53.355 9.077 A 5.174 5.174 0 0 0 53.35 9.316 L 53.35 25.781 L 49.468 25.781 L 49.468 3.809 L 53.35 3.809 L 53.35 6.196 A 4.123 4.123 0 0 1 53.798 5.134 A 3.383 3.383 0 0 1 54.565 4.255 Q 55.444 3.545 56.865 3.545 A 4.071 4.071 0 0 1 58.167 3.74 Q 59.54 4.202 60.117 5.757 Q 61.176 3.783 63.32 3.571 A 5.403 5.403 0 0 1 63.853 3.545 A 4.865 4.865 0 0 1 65.006 3.673 A 2.99 2.99 0 0 1 66.848 4.922 Q 67.778 6.299 67.778 8.95 L 67.778 25.781 Z M 140.098 25.781 L 136.23 25.781 L 136.23 8.906 Q 136.23 6.794 134.844 6.726 A 1.913 1.913 0 0 0 134.751 6.724 A 2.069 2.069 0 0 0 134.163 6.803 A 1.533 1.533 0 0 0 133.374 7.339 A 2.023 2.023 0 0 0 133.044 7.981 Q 132.953 8.266 132.916 8.611 A 4.716 4.716 0 0 0 132.891 9.111 L 132.891 25.781 L 129.009 25.781 L 129.009 8.877 Q 129.009 6.724 127.573 6.724 A 1.978 1.978 0 0 0 126.975 6.809 A 1.52 1.52 0 0 0 126.145 7.449 A 2.736 2.736 0 0 0 125.782 8.3 Q 125.694 8.658 125.674 9.077 A 5.174 5.174 0 0 0 125.669 9.316 L 125.669 25.781 L 121.787 25.781 L 121.787 3.809 L 125.669 3.809 L 125.669 6.196 A 4.123 4.123 0 0 1 126.118 5.134 A 3.383 3.383 0 0 1 126.885 4.255 Q 127.764 3.545 129.185 3.545 A 4.071 4.071 0 0 1 130.486 3.74 Q 131.86 4.202 132.437 5.757 Q 133.495 3.783 135.639 3.571 A 5.403 5.403 0 0 1 136.172 3.545 A 4.865 4.865 0 0 1 137.325 3.673 A 2.99 2.99 0 0 1 139.167 4.922 Q 140.098 6.299 140.098 8.95 L 140.098 25.781 Z M 106.772 20.801 L 106.772 3.809 L 110.669 3.809 L 110.669 20.2 A 8.783 8.783 0 0 0 110.695 20.908 Q 110.763 21.745 111.006 22.214 A 1.144 1.144 0 0 0 111.805 22.817 A 2.027 2.027 0 0 0 112.266 22.866 Q 113.736 22.866 113.987 21.052 A 6.035 6.035 0 0 0 114.038 20.229 L 114.053 3.809 L 117.92 3.809 L 117.92 25.781 L 114.038 25.781 L 114.038 23.496 A 4.934 4.934 0 0 1 113.421 24.706 Q 112.45 26.06 110.684 26.06 A 4.079 4.079 0 0 1 108.882 25.689 Q 107.159 24.851 106.843 22.12 A 11.521 11.521 0 0 1 106.772 20.801 Z M 103.638 9.917 L 103.638 11.118 L 100.166 11.118 L 100.166 9.668 Q 100.166 8.174 99.829 7.449 Q 99.492 6.724 98.708 6.724 Q 98.156 6.724 97.807 6.95 A 1.112 1.112 0 0 0 97.551 7.178 Q 97.222 7.578 97.183 8.479 A 5.815 5.815 0 0 0 97.178 8.73 A 3.968 3.968 0 0 0 97.862 10.936 A 5.986 5.986 0 0 0 98.73 11.968 L 100.811 13.857 A 11.793 11.793 0 0 1 102.637 15.983 A 7.953 7.953 0 0 1 104.019 20.435 Q 104.019 22.227 103.501 23.449 A 4.24 4.24 0 0 1 102.744 24.653 Q 101.682 25.825 99.643 26.021 A 8.968 8.968 0 0 1 98.789 26.06 A 7.419 7.419 0 0 1 97.286 25.917 Q 96.405 25.735 95.739 25.318 A 3.777 3.777 0 0 1 94.834 24.529 A 4.576 4.576 0 0 1 94.07 23.155 Q 93.61 21.895 93.565 20.033 A 17.058 17.058 0 0 1 93.56 19.614 L 93.56 18.193 L 97.207 18.193 L 97.207 19.966 A 8.627 8.627 0 0 0 97.257 20.943 Q 97.481 22.896 98.701 22.896 Q 99.297 22.896 99.643 22.601 A 1.11 1.11 0 0 0 99.844 22.375 A 1.559 1.559 0 0 0 100.027 21.985 Q 100.195 21.471 100.195 20.61 A 4.853 4.853 0 0 0 99.345 17.896 Q 98.899 17.219 98.218 16.579 A 9.356 9.356 0 0 0 98.174 16.538 Q 98.123 16.487 97.439 15.876 A 501.689 501.689 0 0 0 97.229 15.688 Q 96.44 14.984 96.237 14.791 A 2.515 2.515 0 0 1 96.196 14.751 A 8.881 8.881 0 0 1 94.442 12.597 A 7.274 7.274 0 0 1 93.486 8.936 Q 93.486 4.267 97.376 3.642 A 8.176 8.176 0 0 1 98.672 3.545 A 7.135 7.135 0 0 1 100.081 3.675 Q 101.604 3.982 102.444 5.017 Q 103.638 6.489 103.638 9.917 Z M 35.112 18.472 L 35.112 10.283 Q 35.112 4.307 39.526 3.631 A 7.913 7.913 0 0 1 40.723 3.545 Q 42.524 3.545 43.657 4.189 A 3.432 3.432 0 0 1 44.861 5.317 A 6.187 6.187 0 0 1 45.584 6.93 Q 45.817 7.715 45.923 8.666 A 15.318 15.318 0 0 1 46.011 10.356 L 46.011 15.059 L 39.023 15.059 L 39.023 19.38 Q 39.023 21.296 39.301 22.043 A 1.308 1.308 0 0 0 39.419 22.288 A 1.271 1.271 0 0 0 40.334 22.89 A 1.768 1.768 0 0 0 40.605 22.91 Q 41.396 22.91 41.631 22.544 Q 42.026 21.899 42.085 21.226 A 12.418 12.418 0 0 0 42.116 20.756 Q 42.14 20.266 42.143 19.602 A 44.046 44.046 0 0 0 42.144 19.38 L 42.144 17.446 L 45.981 17.446 L 45.981 18.618 A 30.581 30.581 0 0 1 45.952 20.007 Q 45.864 21.932 45.513 22.91 A 8.138 8.138 0 0 1 45.209 23.646 Q 44.866 24.37 44.457 24.773 A 2.362 2.362 0 0 1 44.429 24.8 A 4.044 4.044 0 0 1 42.885 25.711 Q 41.896 26.045 40.562 26.045 A 7.391 7.391 0 0 1 38.802 25.851 Q 36.576 25.305 35.786 23.218 A 9.167 9.167 0 0 1 35.379 21.723 Q 35.231 20.947 35.165 20.031 A 21.787 21.787 0 0 1 35.112 18.472 Z M 83.481 29.956 L 79.6 29.956 L 79.6 3.809 L 83.481 3.809 L 83.481 5.786 A 3.326 3.326 0 0 1 84.785 4.167 A 3.635 3.635 0 0 1 85.816 3.7 A 3.201 3.201 0 0 1 86.653 3.589 A 4.572 4.572 0 0 1 87.513 3.666 A 3.443 3.443 0 0 1 88.359 3.94 Q 89.722 4.6 90.198 6.262 A 10.908 10.908 0 0 1 90.497 7.69 Q 90.605 8.429 90.647 9.285 A 23.332 23.332 0 0 1 90.674 10.43 L 90.674 18.442 A 31.571 31.571 0 0 1 90.627 20.229 Q 90.532 21.897 90.244 22.957 A 4.861 4.861 0 0 1 89.927 23.826 A 4.915 4.915 0 0 1 89.353 24.741 Q 88.879 25.328 88.271 25.633 A 2.962 2.962 0 0 1 87.92 25.781 Q 87.188 26.045 86.301 26.045 Q 85.415 26.045 84.675 25.591 A 3.767 3.767 0 0 1 83.481 24.448 L 83.481 29.956 Z M 8.892 25.781 L 0 25.781 L 0 0 L 3.926 0 L 3.926 22.441 L 8.892 22.441 L 8.892 25.781 Z M 33.062 6.006 L 33.047 6.826 Q 31.875 6.826 30.747 7.222 Q 30.028 7.474 29.625 7.863 A 1.692 1.692 0 0 0 29.268 8.35 L 29.268 25.781 L 25.356 25.781 L 25.356 3.809 L 29.268 3.809 L 29.268 6.255 A 4.196 4.196 0 0 1 29.752 5.174 A 3.443 3.443 0 0 1 30.608 4.255 A 3.546 3.546 0 0 1 32.067 3.63 A 4.928 4.928 0 0 1 33.003 3.545 A 0.051 0.051 0 0 1 33.017 3.583 Q 33.055 3.812 33.061 5.407 A 168.717 168.717 0 0 1 33.062 6.006 Z M 75.586 25.781 L 71.66 25.781 L 71.66 0 L 75.586 0 L 75.586 25.781 Z M 10.825 18.809 L 10.825 10.591 A 13.257 13.257 0 0 1 11.052 8.019 Q 11.858 3.96 15.535 3.584 A 7.68 7.68 0 0 1 16.318 3.545 A 6.019 6.019 0 0 1 18.786 4.013 Q 21.352 5.157 21.742 9.093 A 15.237 15.237 0 0 1 21.812 10.591 L 21.812 18.809 Q 21.812 23.051 20.125 24.769 A 3.691 3.691 0 0 1 18.984 25.562 Q 18.044 25.981 16.741 26.036 A 9.559 9.559 0 0 1 16.333 26.045 A 8.074 8.074 0 0 1 14.777 25.906 Q 12.899 25.536 12.026 24.185 A 6.406 6.406 0 0 1 11.294 22.557 Q 10.825 21.006 10.825 18.809 Z M 86.763 19.189 L 86.763 10.078 Q 86.763 7.828 86.24 7.114 A 0.918 0.918 0 0 0 86.045 6.914 Q 85.731 6.686 85.25 6.68 A 2.088 2.088 0 0 0 85.225 6.68 Q 84.381 6.68 83.949 7.348 A 1.836 1.836 0 0 0 83.914 7.405 A 2.152 2.152 0 0 0 83.71 7.892 Q 83.481 8.659 83.481 10.063 L 83.481 19.351 A 15.515 15.515 0 0 0 83.503 20.205 Q 83.569 21.396 83.833 22.039 A 1.472 1.472 0 0 0 84.139 22.518 Q 84.422 22.807 84.864 22.875 A 1.889 1.889 0 0 0 85.151 22.896 A 1.604 1.604 0 0 0 85.669 22.817 Q 86.214 22.632 86.44 22.009 A 3.923 3.923 0 0 0 86.596 21.428 Q 86.72 20.795 86.752 19.86 A 19.926 19.926 0 0 0 86.763 19.189 Z M 17.9 19.731 L 17.9 9.902 A 12.39 12.39 0 0 0 17.874 9.06 Q 17.806 8.064 17.563 7.485 Q 17.227 6.68 16.318 6.68 A 1.585 1.585 0 0 0 15.818 6.754 Q 15.355 6.907 15.12 7.377 A 1.696 1.696 0 0 0 15.073 7.478 A 3.304 3.304 0 0 0 14.899 8.041 Q 14.767 8.636 14.742 9.497 A 14.2 14.2 0 0 0 14.736 9.902 L 14.736 19.731 Q 14.736 22.148 15.527 22.69 A 1.226 1.226 0 0 0 15.967 22.874 Q 16.137 22.91 16.333 22.91 A 1.58 1.58 0 0 0 16.831 22.837 Q 17.293 22.684 17.525 22.213 A 1.678 1.678 0 0 0 17.571 22.112 A 3.41 3.41 0 0 0 17.745 21.536 Q 17.878 20.922 17.897 20.037 A 14.099 14.099 0 0 0 17.9 19.731 Z M 39.009 10.078 L 39.009 12.788 L 42.144 12.788 L 42.144 9.976 Q 42.144 8.174 41.858 7.39 A 1.281 1.281 0 0 0 41.608 6.962 Q 41.369 6.698 40.981 6.63 A 1.663 1.663 0 0 0 40.693 6.606 L 40.679 6.606 Q 39.175 6.606 39.041 8.875 A 7.017 7.017 0 0 0 39.038 8.936 A 10.806 10.806 0 0 0 39.023 9.236 Q 39.009 9.589 39.009 10.063 A 32.496 32.496 0 0 0 39.009 10.078 Z" vector-effect="non-scaling-stroke"/></g></svg>